<svg width="85" height="84" viewBox="0 0 85 84" fill="none" xmlns="http://www.w3.org/2000/svg">
<path d="M36.6758 83.83C36.6058 83.83 36.5359 83.81 36.4659 83.78L15.7658 73.3C15.7058 73.27 15.6458 73.22 15.6058 73.16L0.0858536 51.66C0.0158536 51.56 -0.0141635 51.43 0.00583651 51.31L2.99583 36.02C3.02583 35.89 3.10581 35.77 3.22581 35.71C3.34581 35.64 3.48582 35.64 3.61582 35.69L26.4958 44.89C26.5858 44.92 26.6558 44.98 26.7058 45.06L43.8458 71.04C43.9358 71.18 43.9458 71.37 43.8658 71.51L37.0758 83.6C36.9858 83.75 36.8358 83.83 36.6758 83.83ZM16.2858 72.54L36.4958 82.78L42.9358 71.31L26.0259 45.68L3.7858 36.74L0.935829 51.3L16.2858 72.54Z" fill="white"/>
<path d="M39.3259 15.52C39.2859 15.52 39.2359 15.51 39.1959 15.5L16.0859 8.60001C15.9259 8.55001 15.8059 8.42001 15.7759 8.26001C15.7359 8.10001 15.7958 7.93001 15.9158 7.82001L23.6159 0.920013C23.6959 0.850013 23.7958 0.810018 23.9058 0.800018L48.8559 0C48.8959 0 48.9358 9.76585e-06 48.9758 0.0100098L70.8259 5.30002C71.0659 5.36002 71.2159 5.6 71.1658 5.84L69.3259 13.77C69.2759 13.97 69.1058 14.11 68.9058 14.12L39.3559 15.5C39.3358 15.52 39.3259 15.52 39.3259 15.52ZM17.1159 7.96002L39.3759 14.6L68.5059 13.24L70.1658 6.08002L48.8159 0.910004L24.0958 1.71002L17.1159 7.96002Z" fill="white"/>
<path d="M36.6758 83.83C36.4558 83.83 36.2658 83.67 36.2258 83.45C36.1858 83.2 36.3558 82.97 36.6058 82.93L61.9659 78.91L71.3158 67.88L43.5259 71.74C43.2859 71.77 43.0458 71.6 43.0158 71.35C42.9858 71.1 43.1558 70.87 43.4058 70.84L72.3758 66.82C72.5658 66.79 72.7458 66.89 72.8358 67.05C72.9258 67.22 72.9058 67.42 72.7858 67.56L62.5558 79.63C62.4858 79.71 62.3859 79.77 62.2759 79.79L36.7558 83.83C36.7258 83.83 36.6958 83.83 36.6758 83.83Z" fill="white"/>
<path d="M3.44589 36.56C3.38589 36.56 3.31589 36.55 3.25589 36.52C3.02589 36.42 2.92585 36.14 3.03585 35.92L15.7959 7.98001C15.8959 7.75001 16.1759 7.65001 16.3959 7.76001C16.6259 7.86001 16.7259 8.14002 16.6159 8.36002L3.85586 36.3C3.78586 36.46 3.62589 36.56 3.44589 36.56Z" fill="white"/>
<path d="M26.3258 45.76C26.2658 45.76 26.2059 45.75 26.1459 45.72C25.9159 45.62 25.8058 45.35 25.9058 45.12L38.8959 14.88C38.9958 14.65 39.2658 14.54 39.4958 14.64C39.7258 14.74 39.8358 15.01 39.7358 15.24L26.7458 45.48C26.6758 45.65 26.5058 45.76 26.3258 45.76Z" fill="white"/>
<path d="M72.4359 67.72C72.3759 67.72 72.3159 67.71 72.2559 67.68C72.0259 67.58 71.9159 67.31 72.0159 67.08L83.8259 39.23V28.64L70.3259 5.98C70.1959 5.76 70.2659 5.48 70.4859 5.36C70.6959 5.23 70.9859 5.30001 71.1059 5.52001L84.6759 28.29C84.7159 28.36 84.7359 28.44 84.7359 28.52V39.33C84.7359 39.39 84.7259 39.45 84.6959 39.51L72.8559 67.45C72.7759 67.61 72.6159 67.72 72.4359 67.72Z" fill="white"/>
<path d="M84.2759 39.78C84.1259 39.78 83.9759 39.7 83.8859 39.56L68.4758 13.92C68.3458 13.7 68.4159 13.42 68.6359 13.3C68.8459 13.17 69.1359 13.24 69.2559 13.46L84.6658 39.1C84.7958 39.32 84.7259 39.6 84.5059 39.72C84.4359 39.76 84.3559 39.78 84.2759 39.78Z" fill="white"/>
<path d="M62.2059 79.56C62.1859 79.56 62.1559 79.56 62.1359 79.55C62.0259 79.51 61.9659 79.4 61.9859 79.29L64.0759 68.35C64.0959 68.23 64.2159 68.14 64.3458 68.17C64.4659 68.19 64.5459 68.31 64.5259 68.44L62.7259 77.84L67.9259 67.76C67.9859 67.65 68.1259 67.6 68.2359 67.66C68.3459 67.72 68.3959 67.86 68.3359 67.97L62.4159 79.44C62.3659 79.52 62.2859 79.56 62.2059 79.56Z" fill="white"/>
<path d="M62.2059 79.56C62.1259 79.56 62.0458 79.52 62.0058 79.44L56.6358 69.54C56.5758 69.43 56.6158 69.29 56.7258 69.23C56.8358 69.17 56.9758 69.21 57.0358 69.32L61.8158 78.13L60.5759 68.91C60.5559 68.79 60.6459 68.67 60.7759 68.65C60.8959 68.63 61.0158 68.72 61.0358 68.85L62.4458 79.3C62.4558 79.41 62.3958 79.51 62.2858 79.55C62.2458 79.56 62.2259 79.56 62.2059 79.56Z" fill="white"/>
<path d="M62.2059 79.56C62.1659 79.56 62.1159 79.55 62.0859 79.52L48.5759 70.75C48.4659 70.68 48.4359 70.54 48.5059 70.44C48.5759 70.33 48.7159 70.31 48.8159 70.37L60.5859 78.01L52.8359 70.12C52.7459 70.03 52.7459 69.89 52.8359 69.8C52.9259 69.71 53.0658 69.71 53.1558 69.8L62.3658 79.17C62.4458 79.25 62.4558 79.38 62.3759 79.47C62.3358 79.53 62.2659 79.56 62.2059 79.56Z" fill="white"/>
<path d="M62.2059 79.56C62.1859 79.56 62.1659 79.56 62.1459 79.55L41.8259 74.32C41.7059 74.29 41.6259 74.16 41.6659 74.04C41.6959 73.92 41.8259 73.84 41.9459 73.88L59.9659 78.52L44.7559 71.3C44.6459 71.25 44.5959 71.11 44.6459 71C44.6959 70.89 44.8359 70.84 44.9459 70.89L62.2959 79.13C62.4059 79.18 62.4559 79.3 62.4159 79.41C62.3859 79.5 62.2959 79.56 62.2059 79.56Z" fill="white"/>
<path d="M38.5059 80.36C38.3859 80.36 38.2859 80.26 38.2759 80.14C38.2759 80.01 38.3658 79.91 38.4958 79.9L59.0259 79.21L40.2759 77.15C40.1559 77.14 40.0659 77.02 40.0759 76.9C40.0859 76.78 40.1959 76.68 40.3259 76.7L62.2258 79.11C62.3458 79.12 62.4358 79.23 62.4258 79.35C62.4258 79.47 62.3259 79.56 62.2059 79.57L38.5059 80.36Z" fill="white"/>
<path d="M23.4758 44.38C23.4358 44.38 23.4058 44.37 23.3658 44.35C23.2558 44.29 23.2159 44.15 23.2759 44.04L37.0159 18.81L20.4158 42.97C20.3458 43.07 20.2058 43.1 20.0958 43.03C19.9958 42.96 19.9658 42.82 20.0358 42.71L39.1259 14.92C39.1959 14.82 39.3259 14.79 39.4359 14.85C39.5359 14.91 39.5759 15.05 39.5159 15.15L23.6758 44.24C23.6358 44.34 23.5558 44.38 23.4758 44.38Z" fill="white"/>
<path d="M17.4058 41.94C17.3558 41.94 17.3059 41.92 17.2659 41.89C17.1659 41.81 17.1558 41.67 17.2358 41.57L35.8959 18.88L14.4958 40.64C14.4058 40.73 14.2658 40.73 14.1758 40.64C14.0858 40.55 14.0858 40.41 14.1758 40.32L39.1658 14.9C39.2558 14.81 39.3858 14.81 39.4758 14.89C39.5658 14.97 39.5758 15.11 39.4958 15.2L17.5759 41.85C17.5359 41.91 17.4658 41.94 17.4058 41.94Z" fill="white"/>
<path d="M10.9058 39.33C10.8458 39.33 10.7758 39.3 10.7358 39.25C10.6558 39.15 10.6659 39.01 10.7659 38.93L35.0159 18.41L7.62586 37.91C7.52586 37.98 7.38585 37.96 7.30585 37.86C7.23585 37.76 7.25584 37.62 7.35584 37.54L39.1859 14.88C39.2859 14.81 39.4259 14.83 39.4959 14.93C39.5759 15.03 39.5559 15.16 39.4659 15.24L11.0458 39.28C11.0058 39.31 10.9558 39.33 10.9058 39.33Z" fill="white"/>
<path d="M3.75584 36.45C3.67584 36.45 3.60583 36.41 3.55583 36.34C3.49583 36.23 3.52585 36.09 3.63585 36.03L33.2358 18.42L5.19584 32.7C5.08584 32.76 4.94585 32.71 4.88585 32.6C4.82585 32.49 4.87582 32.35 4.98582 32.29L39.2159 14.85C39.3259 14.8 39.4558 14.84 39.5159 14.94C39.5759 15.05 39.5358 15.18 39.4358 15.25L3.86583 36.41C3.83583 36.44 3.79584 36.45 3.75584 36.45Z" fill="white"/>
<path d="M6.97583 28.62C6.88583 28.62 6.80587 28.57 6.76587 28.48C6.71587 28.36 6.77587 28.23 6.88587 28.18L34.4659 16.82L8.76587 24.84C8.64587 24.88 8.51584 24.81 8.48584 24.69C8.44584 24.57 8.51587 24.44 8.63587 24.41L39.2659 14.85C39.3759 14.81 39.5058 14.87 39.5458 14.99C39.5858 15.1 39.5358 15.23 39.4158 15.28L7.06586 28.61C7.03586 28.61 7.00583 28.62 6.97583 28.62Z" fill="white"/>
<path d="M10.2159 21.52C10.1059 21.52 10.0158 21.45 9.99583 21.34C9.96583 21.22 10.0458 21.1 10.1658 21.07L34.8658 15.79L11.6958 18.35C11.5558 18.36 11.4558 18.27 11.4458 18.15C11.4358 18.02 11.5259 17.91 11.6459 17.9L39.2958 14.85C39.4258 14.83 39.5258 14.92 39.5458 15.04C39.5658 15.16 39.4858 15.27 39.3658 15.3L10.2558 21.53C10.2458 21.51 10.2359 21.52 10.2159 21.52Z" fill="white"/>
<path d="M39.3259 15.29C39.3159 15.29 39.3159 15.29 39.3259 15.29L13.1959 15C13.0659 15 12.9658 14.9 12.9758 14.77C12.9758 14.64 13.0759 14.56 13.2059 14.55L36.0559 14.8L14.7258 11.58C14.6058 11.56 14.5158 11.45 14.5358 11.32C14.5558 11.2 14.6659 11.11 14.7959 11.13L39.3659 14.84C39.4859 14.86 39.5659 14.96 39.5559 15.08C39.5359 15.2 39.4359 15.29 39.3259 15.29Z" fill="white"/>
</svg>
