<svg width="84" height="79" viewBox="0 0 84 79" fill="none" xmlns="http://www.w3.org/2000/svg">
<path d="M39.0112 78.19C38.9312 78.19 38.8412 78.17 38.7712 78.12L3.93119 56.73C3.80119 56.65 3.72119 56.52 3.71119 56.37L0.00120117 4.11C-0.0187988 3.86 0.171184 3.65 0.421184 3.62L42.5012 0L82.7812 4.73999C83.0212 4.76999 83.2012 4.99 83.1812 5.23L78.4412 58.61C78.4312 58.77 78.3312 58.91 78.1912 58.98L39.2112 78.14C39.1412 78.17 39.0712 78.19 39.0112 78.19ZM4.61119 56.08L39.0312 77.21L77.5512 58.29L82.2312 5.61L42.4812 0.919998L0.941204 4.5L4.61119 56.08Z" fill="white"/>
<path d="M39.4412 53.7H39.4312C39.3012 53.7 39.1712 53.63 39.0912 53.53L0.111183 4.38C-0.0488168 4.18 -0.00880952 3.9 0.18119 3.74C0.38119 3.58 0.661175 3.62001 0.821175 3.81001L39.4612 52.54L82.3912 4.91C82.5612 4.72 82.8512 4.71 83.0312 4.88C83.2212 5.05 83.2312 5.34 83.0612 5.52L39.7712 53.55C39.6912 53.64 39.5712 53.7 39.4412 53.7Z" fill="white"/>
<path d="M39.0112 78.19C39.0012 78.19 39.0012 78.19 39.0112 78.19C38.7512 78.19 38.5512 77.98 38.5512 77.73L38.9812 53.24C38.9812 52.99 39.1512 52.77 39.4412 52.79C39.6912 52.79 39.8912 53 39.8912 53.25L39.4612 77.74C39.4612 77.99 39.2512 78.19 39.0112 78.19Z" fill="white"/>
<path d="M68.0112 63.71C67.9212 63.71 67.8412 63.66 67.8012 63.58L55.0112 35.82C54.9612 35.71 55.0012 35.59 55.1012 35.53C55.2012 35.47 55.3312 35.5 55.4012 35.6L73.1112 60.94C73.1812 61.04 73.1612 61.18 73.0512 61.26C72.9512 61.33 72.8012 61.31 72.7312 61.2L56.4812 37.95L68.2012 63.39C68.2512 63.5 68.2012 63.64 68.0912 63.69C68.0812 63.71 68.0512 63.71 68.0112 63.71Z" fill="white"/>
<path d="M76.8112 59.39C76.7512 59.39 76.6912 59.37 76.6412 59.32L55.0612 35.88C54.9812 35.79 54.9812 35.66 55.0612 35.57C55.1412 35.48 55.2712 35.47 55.3712 35.55L78.5512 53.71C78.6512 53.79 78.6712 53.93 78.5912 54.03C78.5112 54.13 78.3712 54.15 78.2712 54.07L57.3012 37.64L76.9812 59.02C77.0712 59.11 77.0612 59.26 76.9712 59.34C76.9212 59.37 76.8612 59.39 76.8112 59.39Z" fill="white"/>
<path d="M78.8912 48.64C78.8512 48.64 78.8212 48.63 78.7812 48.61L55.1212 35.92C55.0212 35.86 54.9712 35.74 55.0212 35.63C55.0712 35.52 55.1912 35.47 55.3012 35.5L79.4012 43.3C79.5212 43.34 79.5812 43.47 79.5512 43.59C79.5112 43.71 79.3812 43.77 79.2612 43.74L57.5712 36.72L79.0012 48.21C79.1112 48.27 79.1512 48.41 79.0912 48.52C79.0512 48.6 78.9712 48.64 78.8912 48.64Z" fill="white"/>
<path d="M79.7112 39.33C79.7012 39.33 79.6912 39.33 79.6812 39.33L55.1912 35.95C55.0712 35.93 54.9912 35.83 54.9912 35.71C55.0012 35.59 55.0912 35.5 55.2112 35.49L80.0912 34.43C80.2112 34.44 80.3212 34.52 80.3312 34.65C80.3312 34.78 80.2412 34.88 80.1112 34.89L57.7512 35.84L79.7412 38.87C79.8612 38.89 79.9512 39 79.9312 39.13C79.9212 39.25 79.8312 39.33 79.7112 39.33Z" fill="white"/>
<path d="M54.9912 35.95C54.8912 35.95 54.8012 35.89 54.7712 35.79C54.7412 35.68 54.7912 35.56 54.9012 35.51L80.8812 24.81C81.0012 24.76 81.1312 24.82 81.1812 24.93C81.2312 25.05 81.1712 25.18 81.0612 25.23L57.4312 34.96L80.4712 30.01C80.6012 29.99 80.7112 30.06 80.7412 30.18C80.7712 30.3 80.6912 30.42 80.5712 30.45L55.0612 35.93C55.0212 35.95 55.0012 35.95 54.9912 35.95Z" fill="white"/>
<path d="M55.2212 35.95C55.1512 35.95 55.0812 35.91 55.0312 35.85C54.9612 35.75 54.9812 35.62 55.0812 35.54L81.7412 14.48C81.8412 14.4 81.9812 14.42 82.0612 14.52C82.1412 14.62 82.1212 14.76 82.0212 14.84L57.9912 33.82L81.2612 20.09C81.3712 20.02 81.5112 20.06 81.5712 20.17C81.6312 20.28 81.6012 20.42 81.4912 20.48L55.3312 35.92C55.3012 35.94 55.2612 35.95 55.2212 35.95Z" fill="white"/>
<path d="M55.2212 35.95C55.1612 35.95 55.1012 35.93 55.0612 35.88C54.9712 35.79 54.9812 35.64 55.0712 35.56L82.1312 10.02C82.2212 9.92999 82.3712 9.94 82.4512 10.03C82.5412 10.12 82.5312 10.27 82.4412 10.35L55.3812 35.89C55.3412 35.93 55.2812 35.95 55.2212 35.95Z" fill="white"/>
<path d="M57.9712 68.64C57.9512 68.64 57.9212 68.64 57.9012 68.63C57.7812 68.59 57.7112 68.46 57.7512 68.34L62.7712 52.51C62.8012 52.4 62.9212 52.33 63.0212 52.35C63.1312 52.37 63.2112 52.46 63.2112 52.57V65.94C63.2112 66.07 63.1112 66.17 62.9812 66.17C62.8512 66.17 62.7512 66.07 62.7512 65.94V54.04L58.1812 68.47C58.1612 68.58 58.0712 68.64 57.9712 68.64Z" fill="white"/>
<path d="M45.8812 74.58C45.8312 74.58 45.7812 74.56 45.7412 74.53C45.6412 74.45 45.6212 74.31 45.7012 74.21L62.8112 52.44C62.8812 52.35 63.0112 52.32 63.1112 52.39C63.2112 52.45 63.2412 52.58 63.1912 52.69L53.5612 70.79C53.5012 70.9 53.3612 70.94 53.2512 70.88C53.1412 70.82 53.1012 70.68 53.1612 70.57L61.5812 54.73L46.0612 74.49C46.0212 74.55 45.9512 74.58 45.8812 74.58Z" fill="white"/>
<path d="M39.0512 75.72C38.9912 75.72 38.9312 75.7 38.8912 75.65C38.8012 75.56 38.8112 75.42 38.9012 75.33L60.3112 54.84L39.1512 70.38C39.0512 70.45 38.9112 70.43 38.8312 70.33C38.7612 70.23 38.7812 70.09 38.8812 70.01L62.8612 52.39C62.9612 52.32 63.0912 52.33 63.1712 52.43C63.2512 52.52 63.2412 52.66 63.1512 52.74L39.2112 75.65C39.1612 75.7 39.1012 75.72 39.0512 75.72Z" fill="white"/>
<path d="M39.2312 65.2C39.1512 65.2 39.0712 65.16 39.0312 65.08C38.9712 64.97 39.0212 64.83 39.1312 64.77L60.6412 53.55L39.3012 60.18C39.1812 60.22 39.0512 60.15 39.0112 60.03C38.9712 59.91 39.0412 59.78 39.1612 59.74L62.9212 52.35C63.0312 52.32 63.1512 52.37 63.2012 52.48C63.2412 52.59 63.2012 52.71 63.1012 52.77L39.3412 65.16C39.3012 65.19 39.2712 65.2 39.2312 65.2Z" fill="white"/>
<path d="M39.4412 55.48C39.3312 55.48 39.2312 55.39 39.2112 55.28C39.2012 55.15 39.2912 55.04 39.4112 55.03L60.5412 52.63L41.4312 51.24C41.3312 51.23 41.2512 51.17 41.2312 51.08C41.2012 50.99 41.2412 50.89 41.3212 50.83L56.9412 39.55C57.0412 39.47 57.1812 39.5 57.2612 39.6C57.3312 39.7 57.3112 39.84 57.2112 39.92L42.0912 50.83L63.0112 52.36C63.1312 52.37 63.2212 52.46 63.2212 52.58C63.2212 52.7 63.1412 52.8 63.0212 52.81L39.4712 55.48C39.4512 55.48 39.4512 55.48 39.4412 55.48Z" fill="white"/>
<path d="M41.4512 51.24C41.3612 51.24 41.2712 51.18 41.2412 51.09C41.2012 50.98 41.2512 50.86 41.3612 50.81L58.4812 42.77C58.5912 42.71 58.7312 42.77 58.7812 42.88C58.8312 42.99 58.7812 43.13 58.6712 43.18L43.6012 50.25L60.1212 46.23C60.2412 46.19 60.3712 46.27 60.3912 46.4C60.4212 46.52 60.3512 46.65 60.2212 46.67L41.5012 51.22C41.4812 51.24 41.4612 51.24 41.4512 51.24Z" fill="white"/>
<path d="M41.4512 51.24C41.3312 51.24 41.2312 51.15 41.2212 51.03C41.2112 50.9 41.3012 50.79 41.4312 50.78L61.4312 49.01C61.5512 48.99 61.6712 49.09 61.6812 49.22C61.6912 49.35 61.6012 49.46 61.4712 49.47L41.4712 51.24C41.4612 51.24 41.4512 51.24 41.4512 51.24Z" fill="white"/>
</svg>
