<svg width="79" height="88" viewBox="0 0 79 88" fill="none" xmlns="http://www.w3.org/2000/svg">
<path d="M0.463355 71.0187C0.413355 71.0187 0.363356 71.0087 0.323356 70.9987C0.113356 70.9287 -0.0166493 70.7187 0.0133507 70.4987L4.58335 39.7987C4.59335 39.7587 4.60335 39.7087 4.62335 39.6687L23.6834 0.258723C23.7734 0.0687231 23.9834 -0.0312769 24.1934 0.00872308C24.4034 0.0587231 24.5434 0.238726 24.5434 0.448726V26.3187C24.5434 26.3987 24.5234 26.4687 24.4934 26.5287L0.863357 70.7687C0.783357 70.9287 0.623355 71.0187 0.463355 71.0187ZM5.47335 39.9987L1.30335 68.0287L23.6434 26.2087V2.43875L5.47335 39.9987Z" fill="white"/>
<path d="M50.2134 87.2287C50.1634 87.2287 50.1234 87.2188 50.0734 87.2088L0.313357 70.9988C0.0733567 70.9188 -0.0566442 70.6688 0.0233558 70.4288C0.103356 70.1888 0.353355 70.0587 0.593355 70.1387L50.0334 86.2488L77.3034 47.6488L68.0434 19.9487L23.9034 0.888747C23.6734 0.788747 23.5634 0.518741 23.6634 0.288741C23.7634 0.0587411 24.0334 -0.0412491 24.2634 0.0487509L68.5834 19.1888C68.7034 19.2388 68.7934 19.3388 68.8334 19.4588L78.2334 47.5687C78.2834 47.7087 78.2534 47.8587 78.1734 47.9787L50.5834 87.0387C50.5034 87.1687 50.3634 87.2287 50.2134 87.2287Z" fill="white"/>
<path d="M77.8134 48.1687C77.7534 48.1687 77.7034 48.1587 77.6434 48.1387L23.9234 26.7488C23.6934 26.6588 23.5734 26.3888 23.6734 26.1588C23.7634 25.9188 24.0334 25.8088 24.2634 25.9088L77.9834 47.2987C78.2133 47.3887 78.3334 47.6587 78.2334 47.8887C78.1634 48.0587 77.9934 48.1687 77.8134 48.1687Z" fill="white"/>
<path d="M45.8234 55.3587C45.7934 55.3587 45.7734 55.3588 45.7434 55.3488L4.95335 40.0787C4.83335 40.0387 4.77336 39.9087 4.82336 39.7887C4.86336 39.6687 4.99336 39.6088 5.11336 39.6588L45.7334 54.8587L68.2234 19.4887C68.2934 19.3787 68.4334 19.3587 68.5334 19.4187C68.6434 19.4887 68.6733 19.6287 68.6033 19.7287L46.0134 55.2587C45.9734 55.3187 45.8934 55.3587 45.8234 55.3587Z" fill="white"/>
<path d="M50.2134 87.0087C50.1034 87.0087 50.0034 86.9287 49.9834 86.8087L45.5834 55.1587C45.5634 55.0387 45.6534 54.9187 45.7734 54.8987C45.9034 54.8887 46.0134 54.9687 46.0334 55.0887L50.4334 86.7387C50.4534 86.8587 50.3634 86.9787 50.2434 86.9987C50.2434 87.0087 50.2234 87.0087 50.2134 87.0087Z" fill="white"/>
</svg>
