<svg width="87" height="81" viewBox="0 0 87 81" fill="none" xmlns="http://www.w3.org/2000/svg">
<path d="M45.66 48.75C45.47 48.75 45.3 48.64 45.23 48.45C45.21 48.4 45.19 48.35 45.17 48.3C45.04 47.98 44.91 47.68 44.78 47.39C44.2 46.12 43.51 44.9 42.71 43.76C42.57 43.55 42.62 43.27 42.82 43.13C43.03 42.99 43.31 43.04 43.45 43.24C44.28 44.43 45.01 45.69 45.6 47.01C45.74 47.31 45.88 47.63 46 47.95C46.02 48 46.05 48.07 46.08 48.15C46.17 48.39 46.04 48.65 45.81 48.73C45.77 48.74 45.71 48.75 45.66 48.75Z" fill="white"/>
<path d="M23.88 80.79C10.71 80.79 0 70.08 0 56.91C0 44.5 9.30001 34.28 21.64 33.14C21.65 33.14 21.66 33.14 21.67 33.14C21.7 33.14 21.73 33.13 21.76 33.13C22.01 33.13 22.21 33.33 22.21 33.59C22.21 33.83 22.02 34.03 21.79 34.04C21.78 34.04 21.78 34.04 21.77 34.04C21.76 34.04 21.74 34.04 21.73 34.04C9.86004 35.13 0.900024 44.96 0.900024 56.91C0.900024 69.58 11.2 79.88 23.87 79.88C31.35 79.88 38.39 76.21 42.69 70.08C42.71 70.06 42.73 70.03 42.75 70.01C43 69.76 43.53 69.95 43.53 70.33C43.53 70.42 43.5 70.5 43.46 70.57C43.45 70.59 43.43 70.62 43.41 70.64C38.95 76.99 31.65 80.79 23.88 80.79Z" fill="white"/>
<path d="M62.28 80.79C54.51 80.79 47.21 76.99 42.74 70.63C42.73 70.61 42.71 70.6 42.7 70.58C42.65 70.51 42.62 70.42 42.62 70.32C42.62 69.94 43.15 69.75 43.39 70C43.41 70.02 43.43 70.05 43.45 70.07C47.75 76.21 54.78 79.87 62.27 79.87C74.93 79.87 85.24 69.57 85.24 56.9C85.24 44.95 76.28 35.11 64.39 34.03C64.38 34.03 64.37 34.03 64.35 34.03C64.16 34.03 63.99 33.91 63.92 33.73C63.84 33.49 63.96 33.23 64.2 33.15C64.27 33.13 64.37 33.12 64.45 33.13C64.48 33.13 64.5 33.13 64.52 33.14C76.86 34.29 86.16 44.5 86.16 56.91C86.16 70.08 75.45 80.79 62.28 80.79Z" fill="white"/>
<path d="M40.5 48.68C40.46 48.68 40.42 48.67 40.38 48.66C40.15 48.58 40 48.38 40.08 48.15C40.1 48.09 40.13 48.03 40.15 47.97C40.26 47.67 40.41 47.34 40.56 47C41.16 45.69 41.88 44.42 42.71 43.24C42.86 43.03 43.14 42.99 43.34 43.13C43.54 43.27 43.59 43.56 43.45 43.76C42.65 44.9 41.96 46.12 41.38 47.38C41.23 47.7 41.1 48.01 40.97 48.33C40.9 48.53 40.7 48.68 40.5 48.68Z" fill="white"/>
<path d="M64.38 34.09C64.31 34.09 64.25 34.08 64.19 34.05C63.96 33.94 63.87 33.68 63.97 33.45L63.98 33.44C63.99 33.38 64.01 33.35 64.03 33.32C65.37 30.35 66.05 27.18 66.05 23.88C66.05 11.21 55.75 0.910004 43.08 0.910004C30.41 0.910004 20.11 11.21 20.11 23.88C20.11 27.17 20.79 30.34 22.13 33.31C22.14 33.33 22.15 33.35 22.16 33.37C22.26 33.54 22.23 33.77 22.08 33.91C21.9 34.09 21.61 34.09 21.44 33.91C21.41 33.88 21.38 33.84 21.36 33.8C21.35 33.78 21.31 33.71 21.3 33.69C19.9 30.59 19.2 27.29 19.2 23.88C19.2 10.71 29.91 0 43.08 0C56.25 0 66.96 10.71 66.96 23.88C66.96 27.33 66.24 30.65 64.83 33.76C64.83 33.77 64.82 33.78 64.82 33.79C64.81 33.81 64.81 33.83 64.8 33.84C64.71 33.99 64.55 34.09 64.38 34.09ZM22.19 33.43C22.2 33.47 22.21 33.52 22.21 33.56C22.21 33.51 22.2 33.47 22.19 33.43Z" fill="white"/>
<path d="M46.75 47.46C46.63 47.46 46.52 47.42 46.43 47.33C46.25 47.15 46.25 46.86 46.43 46.69C46.61 46.51 46.9 46.51 47.08 46.69C47.26 46.87 47.26 47.15 47.08 47.33C46.98 47.42 46.86 47.46 46.75 47.46Z" fill="white"/>
<path d="M43.08 47.74C42.35 47.74 41.63 47.71 40.93 47.64C40.69 47.62 40.45 47.6 40.2 47.57C39.95 47.54 39.77 47.32 39.8 47.07C39.83 46.82 40.05 46.65 40.3 46.67C40.53 46.7 40.76 46.72 41 46.74C42.36 46.87 43.8 46.87 45.15 46.74C45.4 46.72 45.62 46.9 45.65 47.15C45.67 47.4 45.49 47.62 45.24 47.65C44.54 47.71 43.81 47.74 43.08 47.74Z" fill="white"/>
<path d="M43.08 54.08C42.98 54.08 42.89 54.05 42.8 53.99C42.6 53.84 42.56 53.55 42.72 53.35C43.4 52.47 43.97 51.51 44.42 50.51C44.76 49.74 45.03 48.96 45.22 48.19C45.25 48.09 45.27 47.99 45.29 47.89C45.35 47.61 45.41 47.34 45.45 47.06C45.58 46.29 45.65 45.49 45.65 44.68C45.65 44.36 45.64 44.05 45.62 43.73C45.58 43.07 45.49 42.43 45.37 41.82C45.29 41.43 45.2 41.05 45.09 40.68C44.6 38.99 43.8 37.42 42.72 36.01C41.09 33.89 38.92 32.27 36.43 31.33C34.82 30.72 33.13 30.42 31.4 30.42C27.98 30.42 24.66 31.65 22.07 33.9C22.06 33.91 22.04 33.93 22.03 33.94C21.85 34.12 21.56 34.12 21.38 33.94C21.2 33.76 21.2 33.48 21.38 33.3C21.4 33.28 21.45 33.24 21.48 33.22C24.3 30.81 27.79 29.52 31.41 29.52C33.25 29.52 35.05 29.85 36.76 30.49C39.41 31.49 41.72 33.21 43.45 35.47C44.6 36.97 45.45 38.64 45.97 40.44C46.09 40.84 46.19 41.24 46.27 41.65C46.4 42.3 46.49 42.98 46.54 43.68C46.56 44.01 46.57 44.35 46.57 44.69C46.57 45.55 46.5 46.4 46.36 47.21C46.32 47.5 46.25 47.8 46.19 48.09C46.17 48.2 46.14 48.31 46.11 48.42C45.91 49.23 45.62 50.07 45.26 50.88C44.78 51.95 44.17 52.97 43.45 53.9C43.35 54.01 43.22 54.08 43.08 54.08Z" fill="white"/>
<path d="M43.08 70.79C42.83 70.79 42.62 70.59 42.62 70.33V53.77C41.93 52.86 41.35 51.87 40.89 50.83C40.54 50.05 40.26 49.23 40.05 48.4C40.03 48.35 40.01 48.26 39.99 48.17C39.91 47.87 39.84 47.53 39.79 47.19C39.65 46.39 39.58 45.54 39.58 44.68C39.58 44.34 39.59 44 39.61 43.67C39.66 42.96 39.75 42.28 39.88 41.64C39.97 41.23 40.06 40.82 40.18 40.42C40.7 38.62 41.55 36.95 42.7 35.45C44.41 33.22 46.69 31.51 49.3 30.5C51.04 29.83 52.87 29.5 54.74 29.5C58.36 29.5 61.87 30.8 64.62 33.16C64.67 33.19 64.73 33.25 64.76 33.3C64.93 33.49 64.91 33.77 64.72 33.94C64.53 34.11 64.24 34.09 64.08 33.9C61.45 31.64 58.15 30.42 54.74 30.42C52.98 30.42 51.26 30.74 49.62 31.36C47.17 32.3 45.02 33.91 43.42 36.01C42.34 37.42 41.54 38.99 41.05 40.68C40.94 41.06 40.85 41.44 40.77 41.82C40.65 42.42 40.56 43.07 40.51 43.73C40.49 44.04 40.48 44.36 40.48 44.68C40.48 45.49 40.55 46.28 40.68 47.05C40.73 47.37 40.8 47.68 40.87 47.98C40.88 48.05 40.89 48.1 40.91 48.15C41.12 48.97 41.38 49.74 41.71 50.47C42.16 51.49 42.73 52.45 43.42 53.35C43.48 53.43 43.51 53.53 43.51 53.63V70.34C43.53 70.58 43.33 70.79 43.08 70.79Z" fill="white"/>
<path d="M43.09 70.79C42.84 70.79 42.63 70.59 42.63 70.33C42.63 70.12 42.77 69.94 42.96 69.89C47.84 68.3 51.5 64.2 52.52 59.18C52.71 58.26 52.81 57.3 52.81 56.33C52.81 54.7 52.54 53.11 52 51.58C51.37 49.78 50.39 48.15 49.09 46.72C48.72 46.31 48.32 45.92 47.89 45.55C47.7 45.38 47.68 45.1 47.85 44.91C48.02 44.72 48.31 44.7 48.49 44.87C48.94 45.26 49.37 45.68 49.76 46.11C51.14 47.62 52.18 49.36 52.85 51.28C53.42 52.9 53.71 54.6 53.71 56.33C53.71 57.36 53.61 58.38 53.4 59.37C52.32 64.69 48.44 69.05 43.27 70.75C43.22 70.78 43.16 70.79 43.09 70.79Z" fill="white"/>
<path d="M43.08 42.79C43.03 42.79 42.99 42.78 42.94 42.77C42.58 42.65 42.22 42.55 41.85 42.46C41.35 42.34 40.83 42.25 40.28 42.18C38.93 42.02 37.51 42.05 36.22 42.26C35.98 42.31 35.74 42.14 35.7 41.89C35.66 41.64 35.82 41.41 36.07 41.37C37.45 41.13 38.96 41.1 40.4 41.28C40.98 41.35 41.54 41.45 42.07 41.58C42.46 41.67 42.84 41.78 43.22 41.9C43.46 41.98 43.59 42.23 43.51 42.47C43.45 42.67 43.27 42.79 43.08 42.79Z" fill="white"/>
<path d="M43.09 70.79C43.02 70.79 42.96 70.78 42.91 70.75C37.73 69.06 33.85 64.7 32.76 59.37C32.56 58.38 32.46 57.36 32.46 56.33C32.46 54.61 32.75 52.91 33.31 51.3C33.99 49.37 35.04 47.63 36.41 46.12C36.8 45.69 37.21 45.3 37.61 44.93C38.29 44.33 39.05 43.78 39.84 43.3C40.05 43.17 40.34 43.24 40.46 43.46C40.59 43.68 40.52 43.96 40.3 44.08C39.55 44.53 38.84 45.04 38.2 45.61C37.82 45.95 37.43 46.33 37.06 46.73C35.77 48.15 34.79 49.79 34.15 51.6C33.62 53.12 33.35 54.71 33.35 56.33C33.35 57.3 33.45 58.26 33.64 59.18C34.66 64.2 38.33 68.31 43.21 69.89C43.29 69.91 43.35 69.96 43.41 70.02C43.49 70.1 43.54 70.21 43.54 70.33C43.54 70.59 43.34 70.79 43.09 70.79Z" fill="white"/>
<path d="M43.08 42.79C42.89 42.79 42.71 42.67 42.65 42.47C42.57 42.23 42.71 41.97 42.95 41.9C43.33 41.78 43.7101 41.67 44.1001 41.58C44.6301 41.45 45.19 41.35 45.77 41.28C47.17 41.11 48.63 41.13 50 41.35C50.25 41.39 50.42 41.62 50.38 41.87C50.34 42.12 50.1 42.29 49.86 42.25C48.57 42.05 47.2 42.02 45.88 42.18C45.34 42.25 44.81 42.34 44.32 42.46C43.95 42.55 43.5901 42.65 43.2301 42.77C43.1701 42.78 43.13 42.79 43.08 42.79Z" fill="white"/>
<path d="M36.04 52.09C35.23 52.09 34.44 52.03 33.67 51.91C30.87 51.47 28.25 50.25 26.09 48.38C22.77 45.49 20.86 41.31 20.86 36.92C20.86 35.77 20.99 34.63 21.24 33.52C21.24 33.51 21.24 33.5 21.25 33.49C21.27 33.41 21.31 33.33 21.37 33.28L21.59 33.5H21.71L22.15 33.62C22.15 33.63 22.14 33.65 22.14 33.66C22.14 33.68 22.14 33.7 22.13 33.72C21.89 34.76 21.77 35.83 21.77 36.92C21.77 41.05 23.56 44.98 26.68 47.69C28.71 49.45 31.17 50.59 33.8 51.01C35.63 51.3 37.62 51.22 39.45 50.77C40.01 50.63 40.57 50.46 41.15 50.24C41.38 50.15 41.65 50.27 41.74 50.5C41.83 50.73 41.71 51 41.48 51.09C40.86 51.33 40.27 51.51 39.67 51.66C38.5 51.94 37.27 52.09 36.04 52.09Z" fill="white"/>
<path d="M50.03 52.09C48.83 52.09 47.65 51.95 46.5 51.67C45.9 51.53 45.29 51.34 44.68 51.12C44.44 51.03 44.32 50.77 44.41 50.53C44.5 50.29 44.76 50.17 45 50.26C45.57 50.47 46.15 50.65 46.71 50.78C48.56 51.23 50.57 51.29 52.34 50.99C54.97 50.56 57.42 49.4 59.44 47.64C62.52 44.93 64.29 41.02 64.29 36.92C64.29 35.85 64.17 34.78 63.93 33.74C63.93 33.73 63.93 33.73 63.93 33.72C63.92 33.7 63.92 33.67 63.91 33.65C63.82 33.42 63.94 33.16 64.17 33.07C64.41 32.98 64.67 33.11 64.76 33.34C64.77 33.36 64.79 33.43 64.8 33.48C64.8 33.5 64.81 33.52 64.81 33.54C65.06 34.64 65.19 35.78 65.19 36.92C65.19 41.28 63.31 45.44 60.03 48.33C57.88 50.21 55.27 51.44 52.48 51.9C51.71 52.02 50.88 52.09 50.03 52.09Z" fill="white"/>
<path d="M45.59 48.56C45.47 48.56 45.34 48.51 45.26 48.41C45.09 48.23 45.1 47.94 45.29 47.77C45.34 47.73 45.38 47.69 45.43 47.65C45.79 47.34 46.11 47.02 46.42 46.69C46.93 46.15 47.39 45.57 47.81 44.96C48.52 43.93 49.08 42.81 49.5 41.64C49.54 41.54 49.61 41.45 49.7 41.4L64.14 33.19C64.35 33.07 64.64 33.14 64.76 33.36C64.88 33.58 64.81 33.86 64.59 33.98L50.3 42.11C49.87 43.3 49.28 44.43 48.57 45.48C48.12 46.13 47.63 46.75 47.09 47.32C46.75 47.68 46.41 48.01 46.05 48.33L45.91 48.45C45.81 48.52 45.7 48.56 45.59 48.56Z" fill="white"/>
<path d="M40.5 48.61C40.43 48.61 40.35 48.59 40.28 48.53C40.27 48.52 40.19 48.45 40.18 48.44C39.76 48.08 39.36 47.7 38.97 47.29C38.47 46.76 37.99 46.16 37.54 45.53C36.81 44.48 36.22 43.33 35.78 42.12L21.47 33.98C21.25 33.86 21.18 33.58 21.3 33.36C21.42 33.14 21.7 33.06 21.92 33.19L36.37 41.41C36.47 41.46 36.54 41.55 36.57 41.65C36.99 42.84 37.57 43.97 38.28 45C38.7 45.6 39.15 46.16 39.62 46.66C39.99 47.05 40.36 47.41 40.74 47.73C40.93 47.89 41 48.21 40.85 48.4C40.76 48.54 40.63 48.61 40.5 48.61Z" fill="white"/>
<path d="M4.67999 70.56C4.60999 70.56 4.52999 70.52 4.48999 70.46C4.41999 70.35 4.44999 70.21 4.55999 70.15L33.62 51.27C33.72 51.2 33.87 51.23 33.93 51.34C34 51.45 33.97 51.59 33.86 51.65L4.79998 70.53C4.76998 70.55 4.71999 70.56 4.67999 70.56Z" fill="white"/>
<path d="M43.08 35.96C42.95 35.96 42.85 35.86 42.85 35.73V0.440002C42.85 0.310002 42.95 0.209991 43.08 0.209991C43.21 0.209991 43.31 0.310002 43.31 0.440002V35.73C43.31 35.86 43.21 35.96 43.08 35.96Z" fill="white"/>
<path d="M81.48 70.56C81.44 70.56 81.39 70.55 81.36 70.52L52.29 51.63C52.18 51.56 52.15 51.42 52.22 51.32C52.29 51.21 52.43 51.19 52.53 51.25L81.6 70.15C81.71 70.22 81.74 70.36 81.67 70.46C81.63 70.53 81.56 70.56 81.48 70.56Z" fill="white"/>
</svg>
