<svg width="62" height="89" viewBox="0 0 62 89" fill="none" xmlns="http://www.w3.org/2000/svg">
<path d="M31.1579 88.7502C31.0179 88.7502 30.8879 88.6902 30.7979 88.5702L0.097937 49.1602C-0.022063 49.0102 -0.0320618 48.8002 0.0679382 48.6402L30.768 0.210176C30.868 0.0501765 31.0479 -0.0298052 31.2279 0.0101948C31.4079 0.0401948 31.5579 0.180201 31.5979 0.360201L43.208 54.0802C43.228 54.1602 43.2179 54.2402 43.1979 54.3202L31.588 88.4402C31.538 88.6002 31.3979 88.7102 31.2279 88.7402C31.2079 88.7502 31.1879 88.7502 31.1579 88.7502ZM1.01795 48.8602L30.9979 87.3502L42.298 54.1502L30.9479 1.6402L1.01795 48.8602Z" fill="white"/>
<path d="M31.1579 88.7502C31.0679 88.7502 30.9879 88.7302 30.9079 88.6802C30.6979 88.5402 30.638 88.2602 30.778 88.0502L60.7279 42.4402L30.7879 0.730189C30.6379 0.530189 30.6879 0.240175 30.8879 0.0901748C31.0879 -0.0598252 31.378 -0.00981914 31.528 0.190181L61.6479 42.1502C61.7579 42.3002 61.7579 42.5102 61.6579 42.6702L31.5379 88.5502C31.4479 88.6802 31.3079 88.7502 31.1579 88.7502Z" fill="white"/>
<path d="M42.7679 54.6402C42.7479 54.6402 42.7279 54.6402 42.7079 54.6402L0.397937 49.3502C0.147937 49.3202 -0.0320777 49.0902 0.00792233 48.8402C0.0379223 48.5902 0.267932 48.4002 0.517932 48.4502L42.6679 53.7202L61.0379 42.0502C61.2479 41.9102 61.5279 41.9802 61.6679 42.1902C61.7979 42.4002 61.7379 42.6802 61.5279 42.8202L43.0179 54.5802C42.9379 54.6102 42.8579 54.6402 42.7679 54.6402Z" fill="white"/>
<path d="M0.457942 49.1102C0.377942 49.1102 0.307939 49.0702 0.267939 49.0002C0.197939 48.8902 0.227947 48.7502 0.337947 48.6902L19.5879 36.6402L30.9479 0.390203C30.9879 0.270203 31.1079 0.200179 31.2379 0.240179C31.3579 0.280179 31.4279 0.410188 31.3879 0.530188L20.0079 36.8602C19.9879 36.9102 19.9579 36.9602 19.9079 36.9802L0.587947 49.0802C0.537947 49.1002 0.497942 49.1102 0.457942 49.1102Z" fill="white"/>
<path d="M31.1579 88.5302C31.0579 88.5302 30.9579 88.4602 30.9379 88.3502L19.5579 36.8402C19.5379 36.7702 19.5579 36.6902 19.6179 36.6402C19.6679 36.5902 19.7479 36.5602 19.8179 36.5702L61.3279 42.2002C61.4579 42.2202 61.5379 42.3302 61.5279 42.4602C61.5179 42.5902 61.3879 42.6602 61.2679 42.6602L20.0879 37.0702L31.3979 88.2602C31.4279 88.3802 31.3479 88.5002 31.2279 88.5302C31.1879 88.5202 31.1779 88.5302 31.1579 88.5302Z" fill="white"/>
</svg>
