<svg width="87" height="76" viewBox="0 0 87 76" fill="none" xmlns="http://www.w3.org/2000/svg">
<path d="M41.765 75.75C41.655 75.75 41.555 75.71 41.475 75.64L29.7451 65.77L20.055 56.13C20.025 56.1 19.995 56.06 19.975 56.02L13.7151 44.27L8.29504 39.02C8.24504 38.97 8.21504 38.92 8.18504 38.86L1.71505 22.39C1.70505 22.36 1.69504 22.33 1.68504 22.29L0.00504402 11.12C-0.024956 10.93 0.0750495 10.74 0.24505 10.65L16.115 2.37C16.165 2.34 16.225 2.32999 16.285 2.31999L28.9651 1.16L40.385 0L51.895 0.949997L64.905 1.81L84.785 1.59C85.025 1.59 85.235 1.78 85.245 2.03L86.065 23.59L85.115 40.88C85.115 40.96 85.085 41.03 85.045 41.1L76.165 55.33C76.135 55.38 76.095 55.42 76.055 55.45L68.165 61.36C68.085 61.42 67.985 61.45 67.875 61.45L53.195 60.77L42.125 75.58C42.055 75.68 41.935 75.75 41.815 75.76C41.805 75.75 41.785 75.75 41.765 75.75ZM20.755 55.53L30.365 65.1L41.695 74.64L52.615 60.02C52.705 59.9 52.835 59.84 53.005 59.84L67.755 60.52L75.445 54.76L84.215 40.7L85.155 23.57L84.355 2.5L64.875 2.70999L51.815 1.84999L40.385 0.899994L29.045 2.06L16.455 3.22L0.955041 11.31L2.58505 22.11L8.99505 38.44L14.405 43.67C14.435 43.7 14.465 43.74 14.485 43.78L20.755 55.53Z" fill="white"/>
<path d="M41.765 75.75C41.545 75.75 41.345 75.59 41.315 75.36L38.815 57.6L40.815 32.5L24.9751 7.36999L11.3551 5.8C11.1051 5.77 10.925 5.55 10.955 5.3C10.985 5.05 11.195 4.87999 11.455 4.89999L25.2851 6.49999C25.4251 6.51999 25.5451 6.58998 25.6151 6.70998L41.655 32.15C41.705 32.23 41.7351 32.33 41.7251 32.43L39.7151 57.58L42.2151 75.24C42.2551 75.49 42.0751 75.72 41.8251 75.75C41.8051 75.75 41.785 75.75 41.765 75.75Z" fill="white"/>
<path d="M25.235 7.39999C25.005 7.39999 24.8051 7.22998 24.7851 6.98998C24.7551 6.73998 24.935 6.51999 25.185 6.48998L40.845 4.8L56.5251 6.23998L70.655 5.58999L84.655 1.58999C84.8951 1.51999 85.1451 1.65999 85.2151 1.89999C85.2851 2.13999 85.1451 2.38999 84.905 2.45999L70.845 6.47C70.815 6.48 70.7751 6.48998 70.7451 6.48998L56.4951 7.13999L40.845 5.69L25.2751 7.38C25.2751 7.4 25.255 7.39999 25.235 7.39999Z" fill="white"/>
<path d="M52.975 60.75C52.935 60.75 52.8951 60.75 52.855 60.73C52.6151 60.66 52.475 60.41 52.535 60.17L55.815 48.41L48.195 27.33L40.475 5.39999C40.395 5.15999 40.515 4.89999 40.755 4.81999C40.995 4.73999 41.255 4.85998 41.335 5.09998L49.055 27.02L56.725 48.23C56.755 48.32 56.765 48.42 56.735 48.51L53.415 60.41C53.355 60.61 53.175 60.75 52.975 60.75Z" fill="white"/>
<path d="M67.8951 61.44C67.8351 61.44 67.7751 61.43 67.7151 61.4C67.4851 61.3 67.3851 61.03 67.4851 60.8L74.3051 45.18L75.0351 26.7L70.3051 6.15C70.2451 5.9 70.4051 5.65999 70.6451 5.59999C70.8951 5.53999 71.1351 5.70001 71.1951 5.94001L75.9351 26.55C75.9451 26.59 75.9451 26.63 75.9451 26.67L75.2151 45.3C75.2151 45.36 75.1951 45.41 75.1751 45.47L68.3151 61.16C68.2351 61.33 68.0651 61.44 67.8951 61.44Z" fill="white"/>
<path d="M39.265 57.99C39.205 57.99 39.1451 57.98 39.0951 57.96L24.0051 51.89C23.9651 51.88 23.935 51.86 23.905 51.83L13.8151 44.36C13.6151 44.21 13.5651 43.93 13.7251 43.72C13.8751 43.52 14.1651 43.48 14.3651 43.63L24.405 51.07L39.2451 57.03L56.0851 47.99C56.1251 47.97 56.1751 47.95 56.2251 47.94L74.625 44.85L84.4851 40.43C84.7151 40.33 84.9851 40.43 85.0851 40.66C85.1851 40.89 85.0851 41.16 84.8551 41.26L74.935 45.7C74.895 45.72 74.8651 45.73 74.8251 45.73L56.4451 48.82L39.4851 57.93C39.4151 57.97 39.345 57.99 39.265 57.99Z" fill="white"/>
<path d="M41.2751 32.84C41.1351 32.84 40.995 32.77 40.905 32.65C40.755 32.44 40.805 32.16 41.015 32.02L48.2451 26.9L55.875 6.53C55.965 6.29 56.2251 6.17 56.4551 6.26C56.6951 6.35 56.8151 6.61 56.7251 6.84L49.0551 27.34C49.0251 27.43 48.9651 27.5 48.8951 27.55L41.5551 32.75C41.4651 32.81 41.3651 32.84 41.2751 32.84Z" fill="white"/>
<path d="M48.625 27.63C48.375 27.63 48.1751 27.43 48.1651 27.18C48.1651 26.93 48.3651 26.72 48.6151 26.72L75.4151 26.2L85.485 23.16C85.7251 23.09 85.9851 23.22 86.0551 23.46C86.1251 23.7 85.9951 23.96 85.7551 24.03L75.625 27.09C75.585 27.1 75.5451 27.11 75.5051 27.11L48.625 27.63Z" fill="white"/>
<path d="M29.875 65.48C29.785 65.48 29.7051 65.43 29.6651 65.34L23.9651 51.55C23.9551 51.52 23.9451 51.48 23.9451 51.44L25.845 28.27L25.015 6.94C25.015 6.81 25.105 6.71 25.235 6.7C25.345 6.71 25.4651 6.79 25.4751 6.92L26.3051 28.28L24.4151 51.42L30.095 65.16C30.145 65.28 30.0851 65.41 29.9751 65.46C29.9351 65.48 29.905 65.48 29.875 65.48Z" fill="white"/>
<path d="M14.085 43.99C13.965 43.99 13.8651 43.9 13.8551 43.78L12.845 25.27L11.175 5.36999C11.165 5.24999 11.255 5.13999 11.375 5.11999L51.055 1.11C51.1851 1.09 51.2951 1.19 51.305 1.31C51.315 1.44 51.2251 1.55 51.1051 1.56L11.655 5.55L13.315 25.24L14.3251 43.76C14.3351 43.89 14.235 43.99 14.115 44C14.095 43.99 14.095 43.99 14.085 43.99Z" fill="white"/>
<path d="M41.2751 32.61C41.2551 32.61 41.2351 32.61 41.2151 32.6L26.0051 28.52L13.015 25.48L2.06505 22.45C1.94505 22.42 1.87505 22.29 1.90505 22.17C1.93505 22.05 2.05504 21.98 2.18504 22.01L13.125 25.04L26.1051 28.08L41.315 32.16C41.435 32.19 41.5051 32.32 41.4751 32.44C41.4651 32.54 41.3751 32.61 41.2751 32.61Z" fill="white"/>
<path d="M53.795 5.56999L40.905 5.48L16.3051 3C16.1751 2.99 16.0851 2.88 16.1051 2.75C16.1151 2.62 16.2351 2.53 16.3551 2.55L40.935 5.03L53.7751 5.12L64.8251 2.03999C64.9451 2.00999 65.0751 2.08 65.1051 2.2C65.1351 2.32 65.065 2.45 64.9451 2.48L53.8651 5.56999C53.8351 5.56999 53.815 5.56999 53.795 5.56999Z" fill="white"/>
<path d="M70.7451 6.28C70.7351 6.28 70.7351 6.28 70.7451 6.28L53.795 5.56999L40.565 2.61L31.2251 1.56C31.0951 1.55 31.0151 1.43 31.0251 1.31C31.0451 1.19 31.1451 1.09 31.2751 1.11L40.6351 2.17L53.8551 5.13L70.7551 5.83C70.8851 5.84 70.9751 5.93999 70.9751 6.06999C70.9651 6.17999 70.8651 6.28 70.7451 6.28Z" fill="white"/>
<path d="M40.9851 70C40.9151 70 40.8551 69.97 40.8051 69.91C40.7251 69.81 40.7451 69.67 40.8451 69.59L51.8351 60.89L40.3051 64.65C40.1851 64.69 40.0551 64.62 40.0151 64.5C39.9751 64.38 40.0451 64.25 40.1651 64.21L52.9051 60.06C53.0151 60.03 53.1251 60.07 53.1751 60.17C53.2251 60.27 53.2051 60.39 53.1151 60.46L41.1251 69.95C41.0851 69.99 41.0351 70 40.9851 70Z" fill="white"/>
<path d="M52.9751 60.52H39.655C39.525 60.52 39.425 60.42 39.425 60.29C39.425 60.16 39.525 60.06 39.655 60.06H52.095L43.5751 55.36C43.4651 55.3 43.425 55.16 43.485 55.05C43.545 54.94 43.685 54.9 43.795 54.96L53.0851 60.09C53.1751 60.14 53.2251 60.25 53.1951 60.35C53.1751 60.45 53.0851 60.52 52.9751 60.52Z" fill="white"/>
<path d="M52.9751 60.52C52.8951 60.52 52.815 60.48 52.775 60.4L48.395 52.63C48.335 52.52 48.375 52.38 48.485 52.32C48.595 52.26 48.735 52.3 48.795 52.41L52.675 59.3L52.085 50.54C52.075 50.41 52.175 50.31 52.295 50.3C52.435 50.28 52.525 50.39 52.535 50.51L53.195 60.27C53.205 60.38 53.135 60.47 53.035 60.5C53.025 60.52 52.9951 60.52 52.9751 60.52Z" fill="white"/>
<path d="M40.1351 46.94C40.1051 46.94 40.0751 46.93 40.0451 46.92C39.9251 46.87 39.8751 46.74 39.9251 46.62L47.4751 29.24L40.9751 38.69C40.9051 38.79 40.7651 38.82 40.6551 38.75C40.5551 38.68 40.5251 38.54 40.5951 38.43L48.4351 27.04C48.5051 26.94 48.6351 26.91 48.7351 26.97C48.8351 27.03 48.8851 27.15 48.8351 27.26L40.3451 46.8C40.3051 46.89 40.2151 46.94 40.1351 46.94Z" fill="white"/>
<path d="M39.2651 57.76C39.2451 57.76 39.2251 57.76 39.1951 57.75C39.0751 57.71 39.0051 57.58 39.0451 57.46L48.4051 27.11C48.4451 27 48.5551 26.93 48.6751 26.96C48.7951 26.99 48.8651 27.1 48.8451 27.22L43.9051 55.2C43.8851 55.32 43.7551 55.41 43.6451 55.38C43.5251 55.36 43.4351 55.24 43.4651 55.12L47.7651 30.74L39.4851 57.6C39.4551 57.7 39.3651 57.76 39.2651 57.76Z" fill="white"/>
<path d="M48.595 52.75C48.465 52.75 48.3651 52.65 48.3651 52.52L48.3851 27.18C48.3851 27.06 48.475 26.96 48.595 26.95C48.715 26.93 48.8151 27.02 48.8351 27.14L52.5251 50.49C52.5451 50.61 52.4651 50.73 52.3351 50.75C52.2151 50.77 52.0951 50.68 52.0751 50.56L48.8251 30.05L48.8051 52.52C48.8251 52.65 48.725 52.75 48.595 52.75Z" fill="white"/>
</svg>
