<svg width="87" height="84" viewBox="0 0 87 84" fill="none" xmlns="http://www.w3.org/2000/svg">
<path d="M46.5085 55.6984C46.4385 55.6984 46.3785 55.6884 46.3185 55.6584C46.1385 55.5784 46.0385 55.3884 46.0585 55.1884L48.4985 36.2684L31.7985 26.5884C31.6285 26.4884 31.5385 26.2884 31.5785 26.0984C31.6185 25.9084 31.7785 25.7584 31.9785 25.7384L50.0785 23.9884L52.3585 6.29839C52.3885 6.09839 52.5385 5.93841 52.7385 5.90841C52.9285 5.86841 53.1285 5.97841 53.2185 6.15841L61.4485 22.8984L77.6085 21.3384C77.7885 21.3184 77.9785 21.4184 78.0585 21.5884C78.1385 21.7584 78.1085 21.9584 77.9785 22.0984L66.8985 34.0084L75.1185 50.7384C75.2085 50.9184 75.1685 51.1384 75.0185 51.2684C74.8685 51.4084 74.6485 51.4284 74.4785 51.3284L59.0785 42.3984L46.8385 55.5484C46.7485 55.6484 46.6285 55.6984 46.5085 55.6984ZM49.3385 36.7584L47.1285 53.8984L58.2585 41.9284L49.3385 36.7584ZM59.7085 41.7184L73.6285 49.7884L66.2185 34.7184L59.7085 41.7184ZM49.4685 35.7784L58.9085 41.2484L65.7985 33.8384L60.8985 23.8584L50.8885 24.8284L49.4685 35.7784ZM33.4685 26.4984L48.6085 35.2784L49.9385 24.9084L33.4685 26.4984ZM61.8585 23.7584L66.4585 33.1184L76.4785 22.3484L61.8585 23.7584ZM53.0585 7.90841L50.9985 23.8984L60.4585 22.9884L53.0585 7.90841Z" fill="white"/>
<path d="M16.2385 53.0284C16.0485 53.0284 15.8685 52.9084 15.8085 52.7184L11.2685 39.0784L0.688487 45.3784C0.508487 45.4884 0.278484 45.4584 0.138484 45.3084C-0.0115164 45.1584 -0.0415161 44.9384 0.0684839 44.7584L8.39849 30.4184L4.25849 17.9684C4.20849 17.8084 4.24849 17.6284 4.36849 17.5084C4.48849 17.3884 4.66849 17.3384 4.82849 17.3884L14.2885 20.2884L23.0085 5.26841C23.1185 5.07841 23.3485 4.99843 23.5485 5.06843C23.7585 5.13843 23.8785 5.34843 23.8485 5.56843L21.2885 22.4384L32.1585 25.7684C32.3285 25.8184 32.4585 25.9684 32.4785 26.1484C32.4985 26.3284 32.4185 26.4984 32.2585 26.5984L19.4985 34.1984L16.6885 52.6684C16.6585 52.8784 16.4885 53.0384 16.2785 53.0484C16.2585 53.0284 16.2485 53.0284 16.2385 53.0284ZM12.0685 38.5984L16.0685 50.6384L18.4785 34.7884L12.0685 38.5984ZM8.77848 31.5684L1.73849 43.6984L10.9785 38.1884L8.77848 31.5684ZM9.37849 30.5184L11.7685 37.7084L18.6485 33.6084L20.2485 23.0584L14.6885 21.3584L9.37849 30.5184ZM21.1385 23.3284L19.6685 33.0084L30.8985 26.3184L21.1385 23.3284ZM5.38848 18.5084L8.99848 29.3584L13.8085 21.0784L5.38848 18.5084ZM15.1685 20.5484L20.3985 22.1484L22.5785 7.78843L15.1685 20.5484Z" fill="white"/>
<path d="M52.7985 6.80843C52.7785 6.80843 52.7585 6.80843 52.7385 6.80843L40.3185 5.03844L23.4185 5.94844C23.1485 5.96844 22.9685 5.78842 22.9385 5.54842C22.9085 5.30842 23.0685 5.08842 23.2985 5.04842L47.6985 0.00843806C47.8585 -0.0215619 48.0285 0.028432 48.1385 0.158432L53.1385 6.06844C53.2585 6.20844 53.2785 6.41842 53.1885 6.57841C53.1185 6.71841 52.9585 6.80843 52.7985 6.80843ZM40.3585 4.12843L51.6785 5.72844L47.6285 0.938431L29.3985 4.70842L40.3585 4.12843Z" fill="white"/>
<path d="M20.7685 23.1984C20.5285 23.1984 20.3285 23.0184 20.3185 22.7684C20.2985 22.5184 20.4885 22.2984 20.7385 22.2884L37.6885 21.1884L39.9285 4.52841C39.9585 4.30841 40.1385 4.1484 40.3485 4.1384L55.8285 3.19843L23.9885 2.25842L16.2385 15.8584C16.1685 15.9684 16.0585 16.0584 15.9285 16.0784L4.75849 18.2784C4.51849 18.3284 4.26849 18.1684 4.22849 17.9184C4.17849 17.6684 4.33849 17.4284 4.58849 17.3884L15.5485 15.2284L23.3385 1.56842C23.4185 1.41842 23.5885 1.33841 23.7485 1.33841L65.9185 2.58841C66.1585 2.59841 66.3585 2.79842 66.3585 3.03842C66.3585 3.27842 66.1785 3.48841 65.9285 3.49841L40.7785 5.02841L38.5385 21.6884C38.5085 21.8984 38.3285 22.0684 38.1185 22.0784L20.7885 23.2084C20.7885 23.1984 20.7785 23.1984 20.7685 23.1984Z" fill="white"/>
<path d="M50.4785 24.8584C50.4485 24.8584 50.4085 24.8584 50.3785 24.8484L37.9985 22.0584C37.7485 21.9984 37.5985 21.7584 37.6585 21.5184C37.7185 21.2684 37.9685 21.1284 38.1985 21.1784L50.5785 23.9684C50.8285 24.0284 50.9785 24.2684 50.9185 24.5084C50.8685 24.7184 50.6785 24.8584 50.4785 24.8584Z" fill="white"/>
<path d="M40.3785 5.03843C40.3485 5.03843 40.3285 5.03842 40.2985 5.02842L23.6585 2.22844C23.4085 2.18844 23.2385 1.94842 23.2885 1.70842C23.3285 1.45842 23.5685 1.29842 23.8085 1.33842L40.4485 4.13841C40.6985 4.17841 40.8685 4.41843 40.8185 4.65843C40.7885 4.87843 40.5985 5.03843 40.3785 5.03843Z" fill="white"/>
<path d="M85.5685 43.1984C85.3985 43.1984 85.2385 43.1084 85.1585 42.9484L77.4585 27.6584C77.4285 27.5984 77.4085 27.5384 77.4085 27.4684L77.1885 21.9984L72.9685 18.3584C72.9185 18.3184 72.8885 18.2684 72.8585 18.2184L65.4985 3.22841C65.3885 2.99841 65.4785 2.72839 65.7085 2.61839C65.9285 2.50839 66.2085 2.59839 66.3185 2.82839L73.6385 17.7384L77.9385 21.4484C78.0385 21.5284 78.0885 21.6484 78.0985 21.7784L78.3285 27.3384L85.9885 42.5384C86.0985 42.7584 86.0085 43.0384 85.7885 43.1484C85.7085 43.1784 85.6385 43.1984 85.5685 43.1984Z" fill="white"/>
<path d="M34.9185 43.5384C34.8385 43.5384 34.7585 43.5184 34.6885 43.4784L18.8485 34.2884C18.6285 34.1584 18.5585 33.8884 18.6785 33.6684C18.8085 33.4484 19.0885 33.3784 19.2985 33.5084L34.9285 42.5784L48.7685 35.6184C48.9885 35.5084 49.2685 35.5984 49.3785 35.8184C49.4885 36.0384 49.3985 36.3184 49.1785 36.4284L35.1185 43.4984C35.0585 43.5284 34.9885 43.5384 34.9185 43.5384Z" fill="white"/>
<path d="M36.9285 83.1484C36.7785 83.1484 36.6385 83.0784 36.5485 82.9484L29.2385 72.3084L12.4385 70.3184C12.2385 70.2984 12.0685 70.1384 12.0385 69.9284C12.0085 69.7284 12.1185 69.5284 12.3085 69.4484L23.8585 64.4784L15.8485 52.8184C15.7285 52.6484 15.7485 52.4084 15.8885 52.2584C16.0285 52.0984 16.2585 52.0584 16.4385 52.1584L32.4085 60.8084L46.3285 54.8184C46.4985 54.7484 46.6885 54.7784 46.8185 54.8984C46.9485 55.0184 46.9985 55.2084 46.9385 55.3784L43.0385 66.5584L58.3685 74.8584C58.5585 74.9584 58.6485 75.1884 58.5885 75.3984C58.5185 75.6084 58.3285 75.7284 58.0985 75.7084L40.5685 73.6284L37.3685 82.8184C37.3085 82.9784 37.1685 83.0984 36.9985 83.1184C36.9685 83.1484 36.9485 83.1484 36.9285 83.1484ZM30.4485 72.4584L36.7985 81.6984L39.6385 73.5484L30.4485 72.4584ZM40.8685 72.7784L55.8385 74.5484L42.7285 67.4484L40.8685 72.7784ZM29.7685 71.4584L39.9485 72.6684L41.9185 67.0084L32.3585 61.8284L25.2485 64.8884L29.7685 71.4584ZM14.2385 69.6184L28.5685 71.3184L24.3985 65.2484L14.2385 69.6184ZM33.4285 61.3684L42.2285 66.1384L45.7385 56.0784L33.4285 61.3684ZM17.6785 53.8684L24.7185 64.1184L31.3385 61.2684L17.6785 53.8684Z" fill="white"/>
<path d="M12.4985 70.3284C12.2885 70.3284 12.1085 70.1884 12.0585 69.9784L8.68849 56.2184L0.0984823 45.2584C-0.0615177 45.0584 -0.0215158 44.7784 0.178484 44.6184C0.378484 44.4584 0.658484 44.4984 0.818484 44.6984L9.46848 55.7384C9.50848 55.7884 9.53849 55.8484 9.54849 55.9084L12.9385 69.7584C12.9985 69.9984 12.8485 70.2484 12.6085 70.3084C12.5685 70.3284 12.5385 70.3284 12.4985 70.3284Z" fill="white"/>
<path d="M9.10848 56.4784C8.93848 56.4784 8.77849 56.3884 8.69849 56.2184C8.58849 55.9884 8.68849 55.7184 8.90849 55.6084L16.0385 52.1584C16.2585 52.0484 16.5385 52.1484 16.6485 52.3684C16.7585 52.5984 16.6585 52.8684 16.4385 52.9784L9.30849 56.4284C9.23849 56.4584 9.17848 56.4784 9.10848 56.4784Z" fill="white"/>
<path d="M32.3885 61.7784C32.3685 61.7784 32.3485 61.7784 32.3285 61.7784C32.0785 61.7384 31.9085 61.5184 31.9385 61.2684L34.4785 43.0384C34.5185 42.7884 34.7485 42.6184 34.9885 42.6484C35.2385 42.6884 35.4085 42.9084 35.3785 43.1584L32.8385 61.3884C32.7985 61.6084 32.6085 61.7784 32.3885 61.7784Z" fill="white"/>
<path d="M3.95848 39.4084C3.75848 39.4084 3.57849 39.2784 3.51849 39.0784L2.74848 36.4284C2.70848 36.3084 2.72849 36.1784 2.79849 36.0684L7.74848 27.9784C7.87848 27.7584 8.15849 27.6984 8.37849 27.8284C8.58849 27.9584 8.65848 28.2384 8.52848 28.4584L3.67848 36.3784L4.39848 38.8384C4.46848 39.0784 4.32849 39.3284 4.08849 39.3984C4.04849 39.3984 3.99848 39.4084 3.95848 39.4084Z" fill="white"/>
<path d="M30.9685 74.4584C30.9485 74.4584 30.9285 74.4584 30.9085 74.4584L21.2985 73.1984C21.1785 73.1784 21.0685 73.1184 20.9885 73.0184L19.4985 71.0184C19.3485 70.8184 19.3885 70.5284 19.5885 70.3784C19.7885 70.2284 20.0785 70.2684 20.2285 70.4684L21.5985 72.3184L31.0185 73.5484C31.2685 73.5784 31.4385 73.8084 31.4085 74.0584C31.3885 74.2984 31.1885 74.4584 30.9685 74.4584Z" fill="white"/>
<path d="M36.9285 83.1484C36.7985 83.1484 36.6685 83.0884 36.5785 82.9784C36.4185 82.7884 36.4485 82.4984 36.6385 82.3384L45.4885 75.0384C45.5885 74.9584 45.7085 74.9184 45.8385 74.9384L61.3585 77.0684C61.6085 77.0984 61.7785 77.3284 61.7485 77.5784C61.7185 77.8284 61.4785 77.9984 61.2385 77.9684L45.9185 75.8684L37.2185 83.0384C37.1385 83.1184 37.0385 83.1484 36.9285 83.1484Z" fill="white"/>
<path d="M58.1485 75.7284C58.0285 75.7284 57.9185 75.6884 57.8285 75.5984C57.6585 75.4284 57.6485 75.1684 57.7985 74.9884L68.4885 62.0484L74.2985 50.7184C74.3885 50.5484 74.5485 50.4484 74.7485 50.4784C74.9385 50.4984 75.0885 50.6284 75.1385 50.8084L77.3785 59.2284C77.4285 59.3984 77.3685 59.5784 77.2285 59.6884L58.4285 75.6084C58.3585 75.6984 58.2485 75.7284 58.1485 75.7284ZM74.5685 52.1884L69.2485 62.5484L61.7485 71.6284L76.4285 59.1884L74.5685 52.1884Z" fill="white"/>
<path d="M61.3085 77.9784C61.2285 77.9784 61.1485 77.9584 61.0785 77.9184C60.8785 77.7984 60.7985 77.5384 60.9085 77.3284L68.4385 62.1484C68.4585 62.1184 68.4785 62.0884 68.4985 62.0584L85.2285 42.4584C85.3885 42.2784 85.6585 42.2484 85.8485 42.3984C86.0385 42.5484 86.0785 42.8184 85.9385 43.0184L61.6785 77.7984C61.5885 77.9084 61.4485 77.9784 61.3085 77.9784ZM69.2185 62.5984L64.4285 72.2484L79.8485 50.1484L69.2185 62.5984Z" fill="white"/>
<path d="M42.5685 67.2884C42.4585 67.2884 42.3485 67.2484 42.2685 67.1684C42.0785 66.9984 42.0685 66.7084 42.2285 66.5284L53.9585 53.4684C54.0985 53.3084 54.3385 53.2684 54.5285 53.3784L69.0685 61.9484C69.2885 62.0784 69.3585 62.3584 69.2285 62.5684C69.0985 62.7884 68.8185 62.8484 68.6085 62.7284L54.3885 54.3484L42.9085 67.1284C42.8185 67.2384 42.6885 67.2884 42.5685 67.2884Z" fill="white"/>
<path d="M54.2985 54.2284C54.2385 54.2284 54.1885 54.2184 54.1285 54.1984C53.8985 54.1084 53.7785 53.8384 53.8685 53.6084L58.5685 41.6484C58.6585 41.4084 58.9285 41.2984 59.1585 41.3884C59.3885 41.4784 59.5085 41.7484 59.4185 41.9784L54.7185 53.9384C54.6485 54.1184 54.4785 54.2284 54.2985 54.2284Z" fill="white"/>
<path d="M68.4585 38.6684C68.3485 38.6684 68.2485 38.6284 68.1585 38.5584C67.9685 38.3884 67.9485 38.1084 68.1185 37.9184L77.5285 27.1484C77.6885 26.9584 77.9785 26.9384 78.1685 27.1084C78.3585 27.2784 78.3785 27.5584 78.2085 27.7484L68.7985 38.5184C68.7085 38.6184 68.5785 38.6684 68.4585 38.6684Z" fill="white"/>
<path d="M59.0985 19.6384C58.8685 19.6384 58.6685 19.4584 58.6485 19.2184C58.6285 18.9684 58.8185 18.7484 59.0685 18.7284L73.2285 17.5684C73.4585 17.5284 73.6985 17.7284 73.7185 17.9884C73.7385 18.2384 73.5485 18.4584 73.2985 18.4784L59.1385 19.6384C59.1285 19.6384 59.1185 19.6384 59.0985 19.6384Z" fill="white"/>
</svg>
