<svg width="87" height="85" viewBox="0 0 87 85" fill="none" xmlns="http://www.w3.org/2000/svg">
<path d="M44.4366 84.0527C44.3166 84.0527 44.1965 84.0027 44.1165 83.9127C43.9765 83.7727 43.9466 83.5627 44.0366 83.3827L63.0066 46.2127C63.0466 46.1227 63.1166 46.0527 63.2066 46.0127L81.3966 36.8727C81.5266 36.8027 81.6765 36.8127 81.8065 36.8727C81.9366 36.9427 82.0265 37.0627 82.0465 37.2027L86.4466 62.9827C86.4766 63.1827 86.3766 63.3827 86.1966 63.4627L44.6366 83.9827C44.5766 84.0327 44.5066 84.0527 44.4366 84.0527ZM63.7466 46.7727L45.4666 82.5827L85.4966 62.8127L81.2566 37.9727L63.7466 46.7727Z" fill="white"/>
<path d="M24.3466 75.1727C24.2566 75.1727 24.1666 75.1427 24.0866 75.0927L0.196577 58.2727C0.0465772 58.1727 -0.0234252 57.9927 0.00657477 57.8127L9.66655 6.07273C9.69655 5.91273 9.81661 5.77274 9.97661 5.72274C10.1366 5.67274 10.3066 5.71274 10.4366 5.83274L43.7866 37.9927C43.9366 38.1327 43.9666 38.3527 43.8766 38.5327L24.7466 74.9227C24.6866 75.0427 24.5766 75.1227 24.4466 75.1527C24.4166 75.1627 24.3766 75.1727 24.3466 75.1727ZM0.956587 57.6927L24.1766 74.0427L42.8966 38.4127L10.3966 7.07273L0.956587 57.6927Z" fill="white"/>
<path d="M63.4066 46.8827C63.3366 46.8827 63.2566 46.8627 63.1866 46.8227L51.1766 40.2227L43.3766 38.7727C43.1266 38.7227 42.9666 38.4927 43.0166 38.2427C43.0666 37.9927 43.3066 37.8227 43.5466 37.8827L51.4166 39.3527C51.4666 39.3627 51.5066 39.3827 51.5566 39.4027L63.6266 46.0427C63.8466 46.1627 63.9266 46.4427 63.8066 46.6627C63.7266 46.8027 63.5666 46.8827 63.4066 46.8827Z" fill="white"/>
<path d="M44.4366 84.0527C44.3266 84.0527 44.2266 84.0127 44.1366 83.9427L33.3266 74.6627L24.3666 75.1727C24.0966 75.2027 23.9066 74.9927 23.8866 74.7427C23.8766 74.4927 24.0666 74.2727 24.3166 74.2627L33.4566 73.7427C33.5566 73.7327 33.6866 73.7727 33.7766 73.8527L44.7266 83.2527C44.9166 83.4127 44.9366 83.7027 44.7766 83.8927C44.6866 84.0027 44.5666 84.0527 44.4366 84.0527Z" fill="white"/>
<path d="M33.4866 74.6527C33.4166 74.6527 33.3466 74.6327 33.2766 74.6027C33.0566 74.4827 32.9666 74.2127 33.0866 73.9927L50.9366 39.5827C50.9866 39.4927 51.0666 39.4127 51.1666 39.3727L68.7566 31.8727C68.9866 31.7727 69.2566 31.8827 69.3566 32.1127C69.4566 32.3427 69.3466 32.6127 69.1166 32.7127L51.6766 40.1527L33.9066 74.4127C33.8066 74.5627 33.6466 74.6527 33.4866 74.6527Z" fill="white"/>
<path d="M81.6066 37.7427C81.5466 37.7427 81.4966 37.7327 81.4366 37.7127L68.7566 32.7127C68.7166 32.6927 68.6866 32.6727 68.6466 32.6527L26.5466 1.07273L18.6366 9.32273C18.5166 9.45273 18.3266 9.50273 18.1566 9.43273L9.96663 6.58273C9.72663 6.50273 9.6066 6.24273 9.6866 6.00273C9.7666 5.76273 10.0266 5.63273 10.2666 5.72273L18.1866 8.47273L26.1766 0.14273C26.3366 -0.0272704 26.5966 -0.0472696 26.7766 0.0927304L69.1566 31.8727L81.7766 36.8527C82.0066 36.9427 82.1266 37.2127 82.0366 37.4427C81.9566 37.6327 81.7866 37.7427 81.6066 37.7427Z" fill="white"/>
<path d="M51.3366 40.2427C51.2266 40.2427 51.1166 40.2027 51.0266 40.1227L17.9966 9.33274C17.8166 9.16273 17.8066 8.87274 17.9766 8.69274C18.1466 8.51274 18.4366 8.49273 18.6166 8.67273L51.6466 39.4627C51.8266 39.6327 51.8366 39.9227 51.6666 40.1027C51.5766 40.2027 51.4566 40.2427 51.3366 40.2427Z" fill="white"/>
<path d="M28.1366 74.7327C28.0966 74.7327 28.0466 74.7227 28.0066 74.6927C27.9066 74.6227 27.8766 74.4827 27.9466 74.3727L48.5466 43.5427L27.4266 69.3027C27.3466 69.4027 27.2066 69.4127 27.1066 69.3327C27.0066 69.2527 26.9966 69.1127 27.0766 69.0127L51.1466 39.6427C51.2266 39.5527 51.3566 39.5327 51.4566 39.6027C51.5566 39.6727 51.5766 39.8127 51.5066 39.9127L28.3166 74.6227C28.2866 74.6927 28.2166 74.7327 28.1366 74.7327Z" fill="white"/>
<path d="M31.3266 74.5427C31.2866 74.5427 31.2466 74.5327 31.2166 74.5127C31.1066 74.4527 31.0666 74.3127 31.1366 74.2027L50.3766 41.0027L34.5566 55.7627C34.4666 55.8527 34.3166 55.8427 34.2366 55.7527C34.1466 55.6627 34.1566 55.5127 34.2466 55.4327L51.1866 39.6327C51.2666 39.5527 51.3966 39.5527 51.4866 39.6227C51.5766 39.6927 51.5966 39.8127 51.5466 39.9127L31.5466 74.4427C31.4866 74.5027 31.4066 74.5427 31.3266 74.5427Z" fill="white"/>
<path d="M39.2966 46.4827C39.2166 46.4827 39.1366 46.4427 39.0966 46.3627C39.0366 46.2527 39.0766 46.1127 39.1866 46.0527L49.8466 40.3327L41.6866 42.0227C41.5566 42.0527 41.4465 41.9727 41.4165 41.8427C41.3866 41.7227 41.4666 41.6027 41.5966 41.5727L51.2966 39.5627C51.4066 39.5427 51.5166 39.6027 51.5566 39.7027C51.5966 39.8127 51.5466 39.9327 51.4466 39.9827L39.4066 46.4427C39.3666 46.4727 39.3366 46.4827 39.2966 46.4827Z" fill="white"/>
<path d="M81.2566 65.6427C81.2066 65.6427 81.1666 65.6327 81.1266 65.6027L60.7965 51.4827C60.6965 51.4127 60.6666 51.2827 60.7266 51.1827C60.7866 51.0827 60.9166 51.0427 61.0166 51.0927L86.0966 62.8727C86.2066 62.9227 86.2566 63.0627 86.2066 63.1727C86.1566 63.2827 86.0166 63.3327 85.9066 63.2827L63.2766 52.6527L81.3866 65.2327C81.4866 65.3027 81.5166 65.4427 81.4466 65.5527C81.3966 65.6127 81.3266 65.6427 81.2566 65.6427Z" fill="white"/>
<path d="M72.0266 70.2027C71.9466 70.2027 71.8766 70.1627 71.8266 70.0927L60.7166 51.4227C60.6566 51.3227 60.6766 51.1927 60.7766 51.1227C60.8666 51.0527 60.9966 51.0627 61.0766 51.1427L76.8866 67.2727C76.9766 67.3627 76.9766 67.5027 76.8866 67.5927C76.7966 67.6827 76.6566 67.6827 76.5666 67.5927L62.0866 52.8127L72.2266 69.8527C72.2866 69.9627 72.2566 70.1027 72.1466 70.1627C72.1066 70.1927 72.0666 70.2027 72.0266 70.2027Z" fill="white"/>
<path d="M63.7965 74.2627C63.6865 74.2627 63.5866 74.1827 63.5666 74.0627L60.6866 51.3227C60.6766 51.2027 60.7465 51.1027 60.8565 51.0727C60.9765 51.0427 61.0866 51.1127 61.1266 51.2227L68.0465 71.9627C68.0865 72.0827 68.0266 72.2127 67.9066 72.2527C67.7866 72.2927 67.6565 72.2227 67.6165 72.1127L61.4265 53.5627L64.0166 74.0127C64.0366 74.1327 63.9466 74.2527 63.8166 74.2627C63.8166 74.2627 63.8065 74.2627 63.7965 74.2627Z" fill="white"/>
<path d="M55.8666 78.1827C55.8566 78.1827 55.8366 78.1827 55.8266 78.1827C55.7066 78.1627 55.6166 78.0427 55.6466 77.9127L60.7066 51.2527C60.7266 51.1327 60.8166 51.0527 60.9566 51.0727C61.0766 51.0827 61.1666 51.1827 61.1566 51.3027L60.5266 75.7727C60.5266 75.9027 60.3966 76.0127 60.2966 75.9927C60.1666 75.9927 60.0766 75.8827 60.0766 75.7627L60.6366 54.1027L56.0966 78.0027C56.0666 78.1027 55.9766 78.1827 55.8666 78.1827Z" fill="white"/>
<path d="M47.6866 82.2227C47.6566 82.2227 47.6266 82.2127 47.5966 82.2027C47.4766 82.1527 47.4266 82.0227 47.4766 81.9027L60.7166 51.2127C60.7666 51.1027 60.8866 51.0427 61.0066 51.0927C61.1166 51.1327 61.1766 51.2627 61.1466 51.3727L51.7466 80.1727C51.7066 80.2927 51.5766 80.3527 51.4566 80.3227C51.3366 80.2827 51.2766 80.1527 51.3066 80.0327L59.1666 55.9527L47.8966 82.0927C47.8566 82.1627 47.7766 82.2227 47.6866 82.2227Z" fill="white"/>
<path d="M83.6765 62.2127C83.5965 62.2127 83.5166 62.1727 83.4766 62.0927L72.8065 41.7227C72.7466 41.6127 72.7866 41.4727 72.9066 41.4127C73.0166 41.3527 73.1566 41.3927 73.2166 41.5127L82.8266 59.8527L76.8966 39.6227C76.8566 39.5027 76.9265 39.3727 77.0465 39.3427C77.1665 39.3127 77.2966 39.3727 77.3266 39.5027L83.8966 61.9327C83.9266 62.0427 83.8666 62.1627 83.7666 62.2027C83.7366 62.2027 83.7065 62.2127 83.6765 62.2127Z" fill="white"/>
<path d="M83.6765 62.2127C83.5565 62.2127 83.4666 62.1227 83.4466 62.0127L80.5465 37.7327C80.5266 37.6027 80.6166 37.4927 80.7466 37.4827C80.8966 37.4827 80.9866 37.5527 80.9966 37.6827L83.7266 60.5527L84.6065 56.2027C84.6265 56.0827 84.7566 55.9927 84.8766 56.0227C84.9966 56.0427 85.0766 56.1627 85.0566 56.2927L83.8966 62.0327C83.8766 62.1327 83.7865 62.2127 83.6765 62.2127Z" fill="white"/>
<path d="M83.6765 62.2127C83.6265 62.2127 83.5666 62.1927 83.5266 62.1527L65.0666 45.6927C64.9766 45.6127 64.9665 45.4627 65.0465 45.3727C65.1265 45.2827 65.2766 45.2727 65.3666 45.3527L81.9865 60.1727L69.1566 43.5927C69.0766 43.4927 69.0966 43.3527 69.1966 43.2727C69.2966 43.1927 69.4366 43.2127 69.5166 43.3127L83.8565 61.8427C83.9265 61.9327 83.9166 62.0727 83.8366 62.1527C83.7866 62.1927 83.7365 62.2127 83.6765 62.2127Z" fill="white"/>
<path d="M83.4066 61.9727C83.3666 61.9727 83.3266 61.9627 83.2866 61.9327L62.2766 48.5927C62.1666 48.5227 62.1366 48.3827 62.2066 48.2827C62.2766 48.1727 62.4166 48.1427 62.5166 48.2127L83.5266 61.5527C83.6366 61.6227 83.6666 61.7627 83.5966 61.8627C83.5566 61.9327 83.4866 61.9727 83.4066 61.9727Z" fill="white"/>
</svg>
