<svg width="283" height="283" viewBox="0 0 283 283" fill="none" xmlns="http://www.w3.org/2000/svg">
<path opacity="0.2" d="M138.648 162.467C136.295 154.123 131.835 146.248 125.268 139.681C104.799 119.212 71.6113 119.212 51.1418 139.681C30.6723 160.151 30.6723 193.338 51.1418 213.808C71.6113 234.277 104.799 234.277 125.268 213.808C131.815 207.261 136.268 199.413 138.627 191.097C133.1 203.719 120.498 212.538 105.836 212.538C86.0752 212.538 70.0558 196.519 70.0558 176.758C70.0558 156.997 86.0752 140.977 105.836 140.977C120.517 140.977 133.132 149.819 138.648 162.467ZM97.5709 142.965C82.3523 146.675 71.0558 160.397 71.0558 176.758C71.0558 195.966 86.6274 211.538 105.836 211.538C125.045 211.538 140.616 195.966 140.616 176.758C140.616 160.397 129.32 146.675 114.101 142.965C119.964 145.972 123.976 152.076 123.976 159.118C123.976 169.136 115.855 177.258 105.836 177.258C95.8176 177.258 87.6961 169.136 87.6961 159.118C87.6961 152.076 91.7081 145.972 97.5709 142.965ZM125.976 214.515C119.67 220.821 112.179 225.221 104.22 227.714C145.003 220.186 175.897 184.439 175.897 141.478C175.897 93.0444 136.634 53.7814 88.2005 53.7814C39.7672 53.7814 0.504227 93.0444 0.504225 141.478C0.504223 184.447 31.409 220.199 72.2037 227.718C64.2398 225.226 56.7444 220.824 50.4347 214.515C29.5747 193.655 29.5747 159.834 50.4347 138.974C71.2948 118.114 105.116 118.114 125.976 138.974C146.836 159.834 146.836 193.655 125.976 214.515ZM176.897 141.478C176.897 190.463 137.186 230.174 88.2005 230.174C46.6492 230.174 11.7713 201.602 2.14178 163.033C12.5145 230.461 70.7857 282.095 141.117 282.095C218.777 282.095 281.733 219.138 281.733 141.478C281.733 63.8178 218.777 0.861582 141.117 0.861578C70.7866 0.861575 12.516 52.4936 2.14218 119.92C11.7723 81.3525 46.6498 52.7814 88.2005 52.7814C137.186 52.7814 176.897 92.4921 176.897 141.478ZM105.836 176.258C115.302 176.258 122.976 168.584 122.976 159.118C122.976 149.651 115.302 141.977 105.836 141.977C96.3698 141.977 88.6961 149.651 88.6961 159.118C88.6961 168.584 96.3699 176.258 105.836 176.258Z" stroke="#F9F9F9"/>
</svg>
